{
    "asset" : {
        "generator" : "Khronos glTF Blender I/O v1.8.19",
        "version" : "2.0"
    },
    "scene" : 0,
    "scenes" : [
        {
            "name" : "Scene",
            "nodes" : [
                0
            ]
        }
    ],
    "nodes" : [
        {
            "mesh" : 0,
            "name" : "Cube",
            "scale" : [
                1,
                1,
                2.319284200668335
            ],
            "translation" : [
                0,
                1.0521756410598755,
                0
            ]
        }
    ],
    "materials" : [
        {
            "doubleSided" : true,
            "name" : "body",
            "pbrMetallicRoughness" : {
                "baseColorFactor" : [
                    0.32214272022247314,
                    0.3921622633934021,
                    0.398578941822052,
                    1
                ],
                "metallicFactor" : 0,
                "roughnessFactor" : 0.5
            }
        },
        {
            "doubleSided" : true,
            "name" : "Material.001",
            "pbrMetallicRoughness" : {}
        },
        {
            "doubleSided" : true,
            "name" : "Material.002",
            "pbrMetallicRoughness" : {
                "baseColorFactor" : [
                    0.12944070994853973,
                    0.8000000715255737,
                    0.04380666837096214,
                    1
                ],
                "metallicFactor" : 0,
                "roughnessFactor" : 0.5
            }
        }
    ],
    "meshes" : [
        {
            "name" : "Cube",
            "primitives" : [
                {
                    "attributes" : {
                        "POSITION" : 0,
                        "NORMAL" : 1,
                        "TEXCOORD_0" : 2
                    },
                    "indices" : 3,
                    "material" : 0
                },
                {
                    "attributes" : {
                        "POSITION" : 4,
                        "NORMAL" : 5,
                        "TEXCOORD_0" : 6
                    },
                    "indices" : 7,
                    "material" : 1
                },
                {
                    "attributes" : {
                        "POSITION" : 8,
                        "NORMAL" : 9,
                        "TEXCOORD_0" : 10
                    },
                    "indices" : 11,
                    "material" : 2
                }
            ]
        }
    ],
    "accessors" : [
        {
            "bufferView" : 0,
            "componentType" : 5126,
            "count" : 442,
            "max" : [
                1,
                1.4389365911483765,
                1
            ],
            "min" : [
                -1,
                -1,
                -1
            ],
            "type" : "VEC3"
        },
        {
            "bufferView" : 1,
            "componentType" : 5126,
            "count" : 442,
            "type" : "VEC3"
        },
        {
            "bufferView" : 2,
            "componentType" : 5126,
            "count" : 442,
            "type" : "VEC2"
        },
        {
            "bufferView" : 3,
            "componentType" : 5123,
            "count" : 786,
            "type" : "SCALAR"
        },
        {
            "bufferView" : 4,
            "componentType" : 5126,
            "count" : 36,
            "max" : [
                0.9697368144989014,
                0.7691701054573059,
                0.6221097707748413
            ],
            "min" : [
                -0.9697368144989014,
                -0.4197652339935303,
                -0.9839461445808411
            ],
            "type" : "VEC3"
        },
        {
            "bufferView" : 5,
            "componentType" : 5126,
            "count" : 36,
            "type" : "VEC3"
        },
        {
            "bufferView" : 6,
            "componentType" : 5126,
            "count" : 36,
            "type" : "VEC2"
        },
        {
            "bufferView" : 7,
            "componentType" : 5123,
            "count" : 54,
            "type" : "SCALAR"
        },
        {
            "bufferView" : 8,
            "componentType" : 5126,
            "count" : 179,
            "max" : [
                0.9697368144989014,
                0.9697368144989014,
                0.6550477147102356
            ],
            "min" : [
                -0.9728538990020752,
                -0.9697368144989014,
                -1
            ],
            "type" : "VEC3"
        },
        {
            "bufferView" : 9,
            "componentType" : 5126,
            "count" : 179,
            "type" : "VEC3"
        },
        {
            "bufferView" : 10,
            "componentType" : 5126,
            "count" : 179,
            "type" : "VEC2"
        },
        {
            "bufferView" : 11,
            "componentType" : 5123,
            "count" : 348,
            "type" : "SCALAR"
        }
    ],
    "bufferViews" : [
        {
            "buffer" : 0,
            "byteLength" : 5304,
            "byteOffset" : 0
        },
        {
            "buffer" : 0,
            "byteLength" : 5304,
            "byteOffset" : 5304
        },
        {
            "buffer" : 0,
            "byteLength" : 3536,
            "byteOffset" : 10608
        },
        {
            "buffer" : 0,
            "byteLength" : 1572,
            "byteOffset" : 14144
        },
        {
            "buffer" : 0,
            "byteLength" : 432,
            "byteOffset" : 15716
        },
        {
            "buffer" : 0,
            "byteLength" : 432,
            "byteOffset" : 16148
        },
        {
            "buffer" : 0,
            "byteLength" : 288,
            "byteOffset" : 16580
        },
        {
            "buffer" : 0,
            "byteLength" : 108,
            "byteOffset" : 16868
        },
        {
            "buffer" : 0,
            "byteLength" : 2148,
            "byteOffset" : 16976
        },
        {
            "buffer" : 0,
            "byteLength" : 2148,
            "byteOffset" : 19124
        },
        {
            "buffer" : 0,
            "byteLength" : 1432,
            "byteOffset" : 21272
        },
        {
            "buffer" : 0,
            "byteLength" : 696,
            "byteOffset" : 22704
        }
    ],
    "buffers" : [
        {
            "byteLength" : 23400,
            "uri" : "data:application/octet-stream;base64,"
        }
    ]
}
